<svg width="28" height="37" viewBox="0 0 28 37" fill="none" xmlns="http://www.w3.org/2000/svg">
<path d="M23.0718 28.1159C21.6295 28.4308 20.3939 29.7189 18.7017 28.6424C18.4469 28.4825 17.7979 28.915 17.0815 29.1595C18.3315 30.9646 19.418 32.5347 20.7113 34.4104C18.3075 34.5185 17.9181 32.2715 16.12 31.8061L17.0431 36.2907C14.6009 36.6198 13.0625 35.4775 11.7548 33.4702L15.1201 31.7544C14.1874 31.0116 13.5336 30.2642 12.7163 29.874C10.976 29.0513 10.6587 28.2099 11.5769 26.5834C11.8606 26.0804 12.0961 25.1402 11.8317 24.8299C11.1731 24.059 10.6491 22.9496 9.08181 23.4197C6.8939 24.0674 4.66042 24.5576 2.3993 24.8863C1.78393 24.985 0.543586 24.5291 0.47628 24.1953C0.267123 23.1543 0.379234 22.076 0.798378 21.0974C1.48578 19.9827 2.3734 18.9985 3.4185 18.1923C4.15315 17.6277 4.71705 16.8786 5.04985 16.0249C5.38265 15.1712 5.47182 14.2451 5.30786 13.3456C5.26438 12.5862 5.26438 11.8251 5.30786 11.0657C7.90875 13.3456 10.5962 12.3538 13.4422 12.161C13.0336 10.6379 14.2788 9.13364 12.3557 7.48833C11.3462 6.61866 11.7115 4.01905 11.8125 2.21861C11.8461 1.6404 13.0288 1.128 13.3461 0.864746C14.5143 2.32202 15.423 3.68529 16.5624 4.82291C18.6745 6.92891 20.8651 8.95813 23.1343 10.9106C23.8974 11.5327 24.4978 12.3238 24.8857 13.2181C25.2737 14.1125 25.438 15.0845 25.365 16.0534C25.2809 16.8076 25.3848 17.5705 25.6678 18.277C25.9507 18.9834 26.4044 19.6124 26.9899 20.1102C27.3841 20.4675 27.3937 21.2337 27.5764 21.8072C27.0127 21.5263 26.4669 21.2123 25.9419 20.8671C25.6726 20.6743 25.5332 20.3077 25.0477 19.6072C24.9235 19.8829 24.8206 20.1673 24.74 20.4581C24.2881 23.0154 22.6727 23.9368 20.1055 24.0543C17.846 24.153 15.6057 24.7171 13.3509 25.0791C14.0192 27.6787 14.4134 27.9419 16.87 27.6176C18.4229 27.4107 19.9757 27.171 21.5333 27.077C22.067 27.0441 22.6295 27.406 23.1775 27.5893L23.0718 28.1159Z" fill="white" stroke="black" stroke-width="0.5" stroke-miterlimit="10"/>
</svg>
