<svg width="36" height="40" viewBox="0 0 36 40" fill="none" xmlns="http://www.w3.org/2000/svg">
<path d="M9.77064 18.179C7.51109 15.0246 5.84287 11.6776 1.16032 12.0678L1.218 11.5225L2.51603 10.6199C3.10255 8.80065 3.69869 7.11303 4.15541 5.3925C4.17666 5.15163 4.14757 4.90905 4.06987 4.67953C3.99218 4.45001 3.86752 4.23835 3.7035 4.05745C2.8141 2.99974 1.82856 2.02195 0.88147 1.01126L1.23724 0.658691C3.71152 2.85244 6.1826 5.0462 8.65047 7.23995C8.76529 7.37195 8.83282 7.53703 8.84277 7.71004C9.18891 11.5319 9.18412 11.5319 12.9388 12.5614C13.0165 12.6003 13.0905 12.6459 13.16 12.6977C13.3378 18.2166 17.6887 21.1969 21.1501 24.6897C23.3616 26.9226 25.8471 28.8923 28.2172 30.9748C28.5682 31.2851 28.9768 31.8868 29.2893 31.8445C32.1402 31.4496 32.6113 33.8376 33.7747 35.4077C34.1978 35.9766 34.5536 36.5971 35.0247 37.3304L33.9382 38.9616C33.693 38.8911 33.5343 38.8958 33.4574 38.8206C30.8614 36.08 27.5393 35.8543 24.0058 36.0706C21.3589 36.2799 18.6985 36.2657 16.0541 36.0283C14.1816 35.791 12.3742 35.2003 10.7321 34.2889C8.75144 33.203 7.0111 31.6893 5.19865 30.3167C3.75639 29.2261 3.5737 28.3094 4.9102 27.1342C6.93898 25.3478 7.31397 23.538 5.70825 21.3709C5.60118 21.2307 5.52431 21.0708 5.4823 20.9008C5.26596 19.9183 5.07366 18.9311 4.87174 17.9486C5.88133 17.9486 6.89572 17.9486 7.90531 18.0097C8.42452 18.005 8.94374 18.0896 9.77064 18.179Z" fill="white" stroke="black" stroke-width="0.5" stroke-miterlimit="10"/>
</svg>
