<svg width="61" height="68" viewBox="0 0 61 68" fill="none" xmlns="http://www.w3.org/2000/svg">
<path d="M13.2881 60.115C14.0477 62.5406 17.7255 64.2424 14.6054 67.2698C13.0622 66.1321 12.0958 65.0274 12.2016 62.9825C12.2857 61.9507 12.1196 60.9141 11.717 59.9568C11.3144 58.9995 10.6865 58.1485 9.88436 57.4731C7.23059 55.1555 4.68259 52.7158 2.10575 50.3136C0.0817688 48.4332 0.586559 44.3905 3.00476 43.0037C3.30675 42.7977 3.62881 42.6213 3.96627 42.4772C7.89884 41.0951 9.87474 38.5849 9.10554 34.3259C9.02861 33.8793 9.65841 33.1318 10.1584 32.8122C10.9247 32.3399 11.7689 32.0011 12.6535 31.8109C15.5717 31.1574 17.4611 29.4275 18.7783 26.8467C19.8696 24.7266 20.0187 24.8018 22.1436 25.8642C22.3006 25.9437 22.4722 25.9916 22.6484 26.0053C22.7494 26.0053 22.8551 25.9112 23.1051 25.789L21.0523 24.0074C23.283 23.2082 25.1579 22.2163 27.1435 21.8826C30.7395 21.2809 33.3596 19.6214 35.1769 16.5377C36.3211 14.5868 38.1912 13.0825 38.2826 10.5158C38.3258 9.18545 41.9795 7.93031 43.2055 8.63544C44.167 9.18545 45.1669 9.76365 46.3784 10.4641C46.8227 9.29518 47.3463 8.15659 47.9457 7.05593C48.613 5.9885 49.4212 5.01171 50.3495 4.15078C51.2797 3.39362 52.2664 2.70537 53.3013 2.09179C54.085 1.56999 55.0128 0.498178 55.6282 0.648606C57.1835 1.10933 58.6573 1.80057 59.9982 2.69821C60.7915 3.1683 60.3925 4.64438 59.3925 5.10506C57.2724 6.09225 55.1618 7.11705 52.9744 7.95381C51.4216 8.55082 50.5706 9.36408 50.8927 11.0846C50.9432 11.6586 50.9432 12.2358 50.8927 12.8098C50.6427 12.9509 50.4745 13.1295 50.3447 13.106C47.4986 12.603 46.0467 14.2013 44.9698 16.4389C43.3545 19.7907 40.2392 21.577 37.148 23.2928C35.4317 24.233 34.9125 25.4129 35.4942 27.3403L40.4219 27.7117C41.7873 27.8198 42.8497 28.9809 42.2968 30.1938C40.9796 33.0519 42.0949 35.1861 43.8401 37.3814C44.4884 38.1624 44.9595 39.0693 45.2222 40.0418C45.485 41.0143 45.5333 42.0303 45.3641 43.0225L43.5468 41.5088C42.143 42.1011 41.7872 43.2529 41.8738 44.5503C41.9603 45.8478 41.3642 46.6375 40.4315 47.526C37.6912 50.0786 34.0855 50.8166 30.8164 52.288C29.8672 52.7304 29.0423 53.3919 28.4126 54.2154C27.1579 55.903 25.6002 56.1662 24.0858 54.7089C23.0955 53.7688 22.1628 52.7487 21.1244 51.8508C20.5427 51.3478 19.4658 50.5205 19.2014 50.6944C18.0969 51.4046 17.1489 52.3236 16.413 53.3974C15.9851 54.0602 16.0284 55.1367 16.139 55.9923C16.3601 57.6987 15.7399 58.8128 14.1438 59.4804C13.839 59.6654 13.5526 59.8779 13.2881 60.115Z" fill="white" stroke="black" stroke-width="0.5" stroke-miterlimit="10"/>
</svg>
