<svg width="46" height="31" viewBox="0 0 46 31" fill="none" xmlns="http://www.w3.org/2000/svg">
<path d="M26.3055 9.05869L29.5891 10.3891C29.9688 7.20185 30.3246 4.24497 30.6756 1.2834L31.0506 1.21289C31.2813 2.15307 31.4448 3.15906 31.7621 4.08984C31.9015 4.49882 32.4015 5.13344 32.6659 5.10523C35.1177 4.82318 36.0312 6.79756 36.4542 8.25014C37.0456 10.201 38.4398 10.9015 39.8772 11.7993C40.4349 12.1472 41.007 12.4669 41.6656 12.857L43.7473 11.0237C44.0309 13.8442 45.8338 16.1712 44.8146 18.9494C44.2809 20.3926 42.2714 21.7699 40.7522 21.4738C38.108 20.9238 35.5937 21.4738 33.113 22.1648C32.3655 22.4498 31.7179 22.9394 31.2477 23.5751C29.8054 25.3661 28.4401 27.2371 27.0411 29.0704C26.5939 29.687 25.9193 30.1096 25.1596 30.249C24.3999 30.3885 23.6145 30.2339 22.9691 29.8179C19.5028 27.5003 15.8875 27.9986 12.2482 28.7602C10.9598 29.0328 10.2195 28.8777 9.53679 27.82C8.92623 26.8798 8.17625 26.0148 7.49358 25.1123C6.81091 24.2097 5.81574 23.4152 6.73398 21.8827C7.01762 21.4127 5.77246 20.0306 5.16671 19.1186C4.93114 18.7754 4.33022 18.6485 4.13311 18.3148C3.05622 16.4344 2.11394 14.4694 1.0082 12.5985C-0.0398452 10.8168 0.873562 8.16082 2.8735 7.51209L6.98879 6.19114C7.04167 6.19114 7.10896 6.19114 7.26761 6.21935C8.37334 7.82235 9.64254 9.41126 9.25794 11.616C9.01276 13.0027 9.67621 13.5998 11.0416 13.5293C13.8299 13.3882 16.1664 14.3237 18.3346 16.0348C20.3393 17.619 20.8489 17.3511 21.2191 14.8126C21.9451 15.2827 22.6229 15.7528 23.3777 16.2746L24.2287 15.1934L26.3103 16.6601L26.3055 9.05869Z" fill="white" stroke="black" stroke-width="0.5" stroke-miterlimit="10"/>
</svg>
