<svg width="87" height="82" viewBox="0 0 87 82" fill="none" xmlns="http://www.w3.org/2000/svg">
<path d="M11.7691 13.6014L6.66826 4.34065L16.1584 1.14404C16.5478 2.67654 17.1728 4.0727 17.1968 5.47827C17.2401 7.75821 18.3554 9.43643 19.8217 10.9313C20.2263 11.3148 20.5415 11.7792 20.7456 12.2928C20.9497 12.8064 21.038 13.357 21.0044 13.907C21.0013 14.8454 21.1639 15.7774 21.4851 16.6617C21.6822 17.2258 22.3313 18.1237 22.6582 18.072C23.5506 17.9291 24.3838 17.5429 25.0619 16.9579C25.6533 16.4408 25.9177 15.5711 26.4273 14.6826C30.6195 17.1788 34.7491 19.581 38.7971 22.1147C39.2538 22.4015 39.5038 23.478 39.3836 24.1032C38.8163 27.0272 41.4893 28.2823 43.9893 27.864C45.4604 27.6242 45.8786 26.6276 45.0806 25.3631C44.3739 24.2443 42.9941 23.0878 43.9652 21.7434C45.0085 20.2908 46.4892 19.1109 47.9122 17.9827C48.268 17.7006 49.5804 17.8604 49.7006 18.1284C49.9843 18.7865 49.8737 19.6327 49.8401 20.3942C49.8064 21.1558 49.3593 22.143 49.6766 22.5143C50.1333 23.022 51.1621 23.2383 51.9458 23.2383C53.4457 23.2383 54.9457 22.975 56.4456 22.8434C58.3254 22.6741 58.9696 22.016 59.0369 20.1451C59.1475 17.1553 59.1427 17.1365 62.1282 16.6899C63.7098 16.4502 65.33 16.5395 66.0559 14.5698C66.4117 13.6061 67.4165 13.7424 67.6761 14.8001C67.985 15.9884 68.1209 17.2133 68.0799 18.4387C68.0054 19.1995 68.0996 19.967 68.3559 20.689C68.6123 21.411 69.0248 22.0705 69.5654 22.6225C71.0077 24.1173 72.2336 25.8097 73.7961 27.1541C75.2383 28.3999 77.0363 28.1789 78.695 27.281C79.2838 26.9827 79.8538 26.6499 80.4017 26.2844C81.5699 25.4524 82.69 25.4618 83.9304 26.1857C84.659 26.5198 85.4189 26.7843 86.1996 26.9755C86.4592 28.1742 85.9543 29.0674 84.8534 29.8336C83.6515 30.6657 82.1997 31.3567 82.1372 33.1243C82.1372 33.3452 81.8343 33.6226 81.6035 33.7589C80.2622 34.5486 78.9065 35.3008 77.2767 36.2269C76.801 35.8397 76.2816 35.5069 75.7287 35.235C75.0556 34.9482 74.1374 34.5863 73.5797 34.826C72.5413 35.2961 71.6567 36.1281 72.1375 37.4961C72.5798 38.7794 72.5028 39.9124 71.3923 40.876C71.1711 41.0735 70.9596 41.6047 71.075 41.8162C72.2865 43.8517 70.5942 45.3983 70.1135 47.1141C69.9741 47.5842 69.0606 47.9274 68.4549 48.2376C67.7722 48.5855 66.8396 48.656 66.3636 49.1778C65.5127 50.0851 64.9213 51.1052 66.0319 52.4355C67.3443 54.0433 68.3491 55.8907 69.551 57.6065C70.5125 58.9886 71.7 60.0651 73.6182 59.1437C73.7253 59.0864 73.8476 59.0619 73.9692 59.0732C75.123 59.2283 76.2768 59.4023 77.4258 59.5715C77.0219 60.4741 76.6181 61.3861 76.1998 62.2886C76.0796 62.5425 75.921 62.7822 75.7191 63.1583L80.8199 64.4181C80.0366 65.3162 79.1952 66.1641 78.3007 66.9566C76.9302 68.0248 75.4844 68.9972 73.9739 69.8665C72.1711 70.896 71.6375 72.3956 71.6711 74.3088C71.7 75.9212 70.8442 76.7439 69.2674 76.4524C66.003 75.8554 63.556 76.8332 61.633 79.4986C60.5849 80.9559 56.9264 81.4072 55.3447 80.4388C51.8784 78.2952 48.3161 76.2644 45.0469 73.8575C43.5758 72.7763 42.5903 70.9806 41.6143 69.3776C40.5103 67.4781 38.8672 65.9318 36.8837 64.9258C28.2638 60.5728 21.0861 54.3347 14.0526 47.9462C13.0202 46.913 12.3228 45.6047 12.0479 44.1855C11.4662 41.3038 11.3316 38.3375 10.8845 35.423C10.7691 34.6944 10.1585 34.0409 9.76914 33.3593C9.73302 33.3112 9.68267 33.2751 9.6249 33.2559C4.98081 31.1358 3.37509 27.0507 2.37512 22.5613C2.00494 20.8972 1.58669 19.2425 1.15881 17.4374L11.7691 13.6014Z" fill="white" stroke="black" stroke-width="0.5" stroke-miterlimit="10"/>
</svg>
