<svg width="49" height="21" viewBox="0 0 49 21" fill="none" xmlns="http://www.w3.org/2000/svg">
<path d="M35.2188 19.9341L32.7045 14.9182C32.2237 15.6187 32.0026 16.2016 31.5747 16.5024C30.5315 17.2358 29.3632 17.4426 28.2863 16.5494C26.0172 14.6691 23.6855 14.6691 20.9548 15.7033C17.3059 17.0618 13.4839 17.9691 9.76287 19.1584C8.43118 19.5862 7.57543 19.3935 7.08025 18.0443C6.87833 17.4943 6.48892 17.0054 6.30143 16.4507C5.82067 15.0404 4.91686 14.3259 3.33037 14.5704C2.97151 14.6328 2.6016 14.5783 2.27751 14.4152C1.60445 13.9874 1.00351 13.475 0.354492 12.9579C0.77537 12.3526 1.24995 11.7848 1.77272 11.2609C3.69574 9.6438 5.65721 8.1019 7.58503 6.5036C7.98497 6.23458 8.2958 5.85714 8.47926 5.41769C9.33981 2.03304 12.3253 2.16466 14.8204 2.03304C16.9982 1.92022 19.3203 1.90613 21.3395 3.47153C22.849 4.64205 25.2624 4.18136 26.5172 2.71938C27.7719 1.2574 29.2911 0.956543 31.243 0.956543C35.166 0.956543 38.9351 1.47834 42.4975 3.04374C44.3772 3.8711 46.0695 5.12153 47.7858 6.29676C47.9783 6.49897 48.1247 6.73897 48.215 7.00077C48.3054 7.26258 48.3377 7.54018 48.3098 7.81514C48.3098 8.02198 47.4348 8.34164 46.9829 8.28523C45.2906 8.17241 43.9253 8.28525 44.2667 10.5088C44.2907 10.6686 44.209 10.9789 44.132 10.9789C41.8244 11.449 41.3148 13.8652 39.637 15.0357C38.6309 15.8071 37.7107 16.68 36.8919 17.64C36.2889 18.3722 35.7303 19.1382 35.2188 19.9341Z" fill="white" stroke="black" stroke-width="0.5" stroke-miterlimit="10"/>
</svg>
