<svg width="86" height="49" viewBox="0 0 86 49" fill="none" xmlns="http://www.w3.org/2000/svg">
<path d="M68.1068 8.88633C69.1645 7.56538 69.9529 6.67222 70.6356 5.70384C71.4336 4.58503 72.3231 4.60853 73.4096 5.23375C74.0247 5.60676 74.6832 5.90659 75.371 6.1269C76.6883 6.52648 77.4623 7.15641 77.0633 8.6607C76.8085 9.60087 77.3037 10.0381 78.3036 10.1415C79.3036 10.2449 80.4334 10.5317 81.4959 10.7479C82.8852 11.0299 84.5487 10.7479 84.7698 12.9338C84.914 14.3864 85.5823 15.7543 84.3227 17.0518C83.3612 18.0296 83.4237 18.9321 84.5294 19.8723C84.9621 20.2484 85.2313 21.5882 85.039 21.7151C84.3196 22.1278 83.511 22.3693 82.6785 22.4202C82.2555 22.4672 81.8035 21.9784 81.3468 21.9501C80.2699 21.8514 79.2267 21.9266 79.3709 23.445C79.3925 23.7392 79.3925 24.0346 79.3709 24.3288C79.1209 27.9156 79.0248 28.019 75.4528 28.4421C73.4865 28.6724 72.5682 30.172 73.174 32.2357C73.7028 34.0879 72.2365 36.208 70.5491 37.0353C69.4674 37.5665 68.7414 38.9157 68.0059 39.964C67.6645 40.4623 67.7078 41.2097 67.5251 41.8444C67.0444 43.5696 65.6838 44.3969 63.8473 44.5991C61.8522 44.82 59.8907 45.3277 57.8475 45.7226C57.9725 46.6252 58.0494 47.1752 58.1841 48.1247C56.0735 47.6265 54.0447 47.4572 52.3092 46.6675C49.7035 45.4781 47.3238 43.814 44.7998 42.4366C43.5391 41.7852 42.2423 41.203 40.9154 40.6926C39.4442 40.0862 38.1895 40.3401 36.7183 41.1627C34.9011 42.164 32.8194 41.6328 31.1031 40.5234C29.1272 39.2776 27.2571 37.858 25.3773 36.4806C20.7333 33.096 16.1132 29.6596 10.6903 27.5019C8.11894 26.4638 5.8605 24.8023 4.12798 22.6741C3.05589 21.4048 1.8588 20.2343 0.7146 19.0168C2.28667 16.121 4.51737 14.7108 7.92592 15.195C10.5653 15.5663 11.5749 14.6543 11.5508 12.0641C11.5508 10.5693 11.9835 9.46453 13.3056 8.64658C14.8296 7.7064 16.3055 6.6675 17.7622 5.6239C18.3824 5.18202 19.1371 4.71194 19.4208 4.07732C20.1323 2.47431 21.3438 2.23455 22.8966 2.36148C25.1802 2.54951 27.483 2.56363 29.7714 2.69996C31.5166 2.80338 33.1944 2.82217 34.1463 1.04053C36.9972 1.59523 37.2568 4.06322 38.0933 5.93418C38.7808 7.47137 39.9154 7.71111 41.2567 7.62649C41.848 7.58888 42.4393 7.11879 42.9778 6.77092C43.9393 6.15981 44.8335 5.48759 45.4633 5.05041C46.3431 6.15042 46.9344 7.43375 47.944 8.03076C49.6026 9.00385 49.992 6.68162 51.6314 6.34316C51.7812 6.63707 51.9722 6.90918 52.1987 7.1517C53.7948 8.56197 55.4822 8.30813 56.5255 6.52179C58.7369 2.76107 61.6311 2.36149 64.9002 5.42647C65.8569 6.28674 66.679 7.31623 68.1068 8.88633Z" fill="white" stroke="black" stroke-width="0.5" stroke-miterlimit="10"/>
</svg>
