<svg width="129" height="138" viewBox="0 0 129 138" fill="none" xmlns="http://www.w3.org/2000/svg">
<path d="M122.569 105.282C122.506 104.738 122.414 104.199 122.295 103.664C122.21 103.314 122.027 102.992 121.768 102.736C121.508 102.48 121.182 102.298 120.824 102.211C120.466 102.124 120.09 102.136 119.738 102.243C119.387 102.351 119.072 102.552 118.829 102.823C118.491 103.238 118.123 103.63 117.728 103.993C117.26 104.3 116.766 104.567 116.252 104.793C115.99 104.36 115.757 103.911 115.555 103.448C115.266 102.668 115.41 101.681 114.06 101.624C112.81 101.577 112.18 101.986 111.584 103.1C110.334 105.418 110.391 107.867 110.276 110.34C110.29 111.27 110.101 112.193 109.723 113.047C108.661 114.989 107.776 116.808 110.204 118.181C109.536 120.531 107.555 120.155 106.06 120.146C104.565 120.136 103.031 119.459 101.281 119.018L100.002 120.663L94.7139 117.678C93.4303 119.361 92.3534 120.842 93.1467 122.971C93.363 123.545 93.0986 124.734 92.6659 124.983C92.0986 125.303 91.1227 125.054 90.3631 124.87C89.8102 124.739 89.3295 124.32 88.4978 123.85C88.9785 127.7 85.6517 126.37 83.5749 127.634C84.3344 128.574 84.8681 129.783 85.8008 130.3C87.3776 131.179 87.6565 132.363 87.4113 133.854C87.2238 135.005 86.8921 136.138 86.5988 137.375L83.4835 136.721C83.8633 135.414 84.2335 134.136 84.7191 132.453C82.4932 132.453 80.7288 132.316 79.0029 132.5C78.5004 132.584 77.9836 132.518 77.5203 132.31C77.0571 132.102 76.6689 131.762 76.4068 131.334C75.1087 129.486 73.8396 127.62 72.6232 125.721C71.8925 124.579 72.5223 123.582 73.6184 123.451C77.2625 123.013 77.3731 120 78.3394 117.603C78.4644 117.283 78.224 116.836 78.2385 116.451C78.2385 115.934 78.1519 115.238 78.4452 114.937C78.8413 114.572 79.1133 114.097 79.2242 113.575C79.3351 113.054 79.2797 112.512 79.0654 112.023C78.6423 110.843 79.0654 109.959 80.2817 109.329C80.5143 109.444 80.7406 109.571 80.9595 109.71C83.5508 111.402 83.3873 111.176 85.9594 109.442C87.4882 108.412 89.2478 107.909 89.6083 105.813C89.6612 105.517 90.2237 105.277 90.5698 105.065C92.339 104.012 93.4544 102.602 93.1803 100.364C91.7381 99.8943 90.2237 99.1328 88.6228 98.9071C87.6901 98.7755 86.5411 99.3161 85.6469 99.8191C82.0749 101.822 80.4307 101.554 77.9548 98.4088C77.6544 97.9661 77.3218 97.5451 76.9597 97.149C75.2674 95.5037 74.7242 93.5622 74.854 91.2259C74.9357 89.8438 74.3732 88.4288 74.003 86.666C72.8636 87.1925 71.7291 87.3523 71.4983 87.8835C70.5849 89.9848 68.7484 89.7921 67.008 89.9942C66.1283 90.0976 65.2581 90.2857 64.2148 90.4643C64.2148 91.7759 64.3879 93.0357 64.1475 94.225C64.0129 94.8879 63.2918 95.7904 62.6764 95.9409C60.9674 96.278 59.2351 96.4901 57.4939 96.5755C57.1381 96.6037 56.5612 96.4674 56.4362 96.2323C56.3115 95.8292 56.3115 95.3991 56.4362 94.996C56.5708 94.2908 57.0324 93.5481 56.917 92.9135C56.5132 90.9438 55.6911 90.563 53.72 91.1036C52.2296 91.522 48.9124 95.1652 48.9605 96.646C48.9941 97.5486 49.6143 98.437 50.0037 99.3114C50.1912 99.7345 50.4605 100.12 51.0037 101.041C49.5326 100.971 48.398 101.131 47.4269 100.811C46.3548 100.458 46.0808 99.4007 46.2923 98.296C46.6192 96.6084 45.8885 95.6541 44.3693 94.808C40.2877 92.5421 36.3166 90.0788 32.2831 87.6814L29.3072 91.6677L28.4274 91.4327C28.2255 90.1588 28.0957 88.8613 27.788 87.6109C27.5477 86.6472 27.3073 85.5237 26.6727 84.842C25.0474 83.1049 24.0464 80.8964 23.8218 78.5522C23.2401 74.077 23.0574 74.0253 18.8075 75.4308C16.9278 76.0561 15.0576 76.7001 13.1587 77.2501C12.7548 77.3676 12.0097 77.2783 11.8222 77.015C8.17324 71.8441 4.58681 66.6073 0.860962 61.2106L5.88004 58.2067C7.87037 57.008 8.22612 56.3264 7.37519 54.1452C5.93292 50.4644 5.51467 46.6472 5.2791 42.7502C5.14449 40.4514 6.24061 38.7967 7.68288 37.4805C10.3847 35.0642 12.1202 32.1262 13.7308 28.9954C14.375 27.7402 15.6538 26.8047 16.7115 25.7564C18.5912 23.8526 20.5575 22.0333 22.3699 20.0683C23.9612 18.3431 23.6343 17.3935 21.2161 16.8388C16.5865 15.7764 13.6971 12.6785 10.9568 8.8473C14.2211 8.28319 17.2595 7.70968 20.3171 7.24429C26.4515 6.30411 32.5764 5.25581 38.7396 4.62589C41.4463 4.34854 44.2539 4.93615 47.0038 5.2135C53.4267 5.84812 59.8352 6.59557 66.2629 7.14087C67.5607 7.18866 68.8482 6.89826 69.9935 6.29941C73.2098 4.7058 76.3203 2.91476 79.5702 1.12842C81.2143 3.131 82.8681 5.00667 84.3537 6.99985C85.9786 9.19047 87.8728 11.0473 90.3968 12.1708C93.065 13.3696 94.6707 15.3815 95.8389 17.9811C97.3869 21.4222 99.2523 24.7269 101.055 28.2385L108.036 24.6987C108.036 27.665 108.069 30.5655 108.036 33.4706C108.007 35.4168 107.94 37.3677 107.733 39.3044C107.593 40.6207 107.165 41.904 106.896 43.2062C106.747 43.7632 106.671 44.3367 106.67 44.9126C106.911 48.3255 107.228 51.7383 107.459 55.1512C107.536 56.3029 108.04 56.6131 109.194 56.5614C111.843 56.4392 114.483 56.5238 117.16 56.3969C118.535 56.3311 119.117 56.6883 119.454 58.1127C121.256 65.8034 123.237 73.4565 125.088 81.1471C125.159 81.6028 125.362 82.0291 125.673 82.3756C125.984 82.7221 126.39 82.9744 126.843 83.1027C127.524 83.4532 128.041 84.0478 128.285 84.7621C128.381 85.0113 127.549 85.7493 127.011 86.0408C125.843 86.6754 125.266 88.4288 125.828 90.3374C126.559 92.8195 127.314 95.3016 128.16 97.7507C128.641 99.161 128.501 99.9695 126.775 99.8802C125.05 99.7909 124.852 100.994 124.785 102.231C124.718 103.603 124.247 104.68 122.569 105.282Z" fill="white" stroke="black" stroke-width="0.5" stroke-miterlimit="10"/>
</svg>
