<svg width="65" height="44" viewBox="0 0 65 44" fill="none" xmlns="http://www.w3.org/2000/svg">
<path d="M60.2989 42.0705C59.0665 41.6081 57.8654 41.0695 56.7029 40.4581C55.1837 39.5462 54.0683 39.8094 53.0395 41.1538C52.5011 41.859 51.8473 42.4795 51.1598 43.227C50.6817 42.8791 50.2361 42.4905 49.8281 42.0658C48.1166 39.8282 45.5446 39.0149 42.9966 38.432C42.1937 38.244 40.9726 39.297 40.112 39.988C39.5447 40.4581 39.362 41.3325 38.8669 41.9154C38.463 42.3855 37.7756 43.1235 37.3621 43.0389C36.5689 42.8838 35.8333 42.2868 35.1699 41.7556C34.7229 41.355 34.3171 40.9126 33.9583 40.4346C33.1122 41.6569 32.468 42.5923 31.8815 43.4338C29.4152 42.865 30.2565 40.8577 29.4777 39.297L25.5548 42.0094C23.6317 43.3492 22.6702 43.0671 21.6318 41.0175C20.7953 39.3863 20.5357 37.3696 18.4348 36.5188C17.5502 36.1568 16.9925 36.0487 16.2233 36.7538C15.5297 37.3393 14.6614 37.6904 13.7474 37.7551C10.4398 37.8679 7.12742 37.8021 3.44003 37.8021C3.76214 36.2461 3.98328 35.1837 4.20923 34.1213C4.64191 32.067 4.06981 30.8307 2.28621 29.6931C1.72512 29.2245 1.2174 28.6981 0.771851 28.123C2.44488 27.0089 5.4496 28.6636 5.09864 25.6456L9.27641 26.1157C11.1994 23.7652 8.31489 20.7943 11.1369 18.8293L16.2089 21.7486C16.7425 21.0857 17.204 20.5028 17.7377 19.8353C21.1895 21.5793 24.5211 22.1857 27.2037 18.6506C27.2037 18.4673 27.2518 18.2934 27.2037 18.2464C25.175 16.6293 25.5403 14.9558 26.6749 12.9015C27.2566 11.8532 26.997 10.3818 27.2182 9.14074C27.5547 7.26038 27.9201 5.38002 28.4104 3.49966C28.5269 3.25989 28.7026 3.05225 28.9217 2.89549C29.1407 2.73874 29.3963 2.63778 29.6652 2.60177C30.021 2.60177 30.4248 3.24109 30.7133 3.65947C31.1507 4.2941 31.5738 5.56804 31.8863 5.53983C32.7853 5.44582 33.6459 4.86292 34.4824 4.40693C34.7853 4.2424 34.9631 3.83813 35.2372 3.6548C35.641 3.40565 36.2468 3.01077 36.5352 3.14709C36.9679 3.34923 37.2275 3.94623 37.4967 4.39752C37.7659 4.84881 38.0736 5.80779 38.3765 5.80779C39.1185 5.83584 39.8437 5.58716 40.4053 5.11206C41.039 4.49048 41.4375 3.67645 41.535 2.80394C41.5783 0.951782 42.4677 0.453467 44.2321 0.726119C44.3069 2.09613 44.4674 3.46038 44.7128 4.8112C44.9366 5.5564 45.394 6.21411 46.0205 6.69156C47.1214 7.55653 47.7801 8.28987 46.4051 9.4604C45.0301 10.6309 45.3475 12.107 45.8186 13.395C46.2657 14.6079 47.2368 15.581 48.8762 15.3412C50.1069 15.1626 50.905 15.6985 51.3665 16.8784C51.7463 17.8468 52.179 18.8293 53.5924 18.8716C53.828 18.8716 54.376 20.0891 54.1933 20.4793C53.4482 22.0588 54.0443 23.2434 55.3471 23.8827C56.3456 24.2621 57.4416 24.3214 58.4768 24.052C59.8903 23.7417 63.6979 24.3152 64.4334 25.3635C64.6305 25.6456 64.3998 26.5153 64.0777 26.7738C61.5345 28.9033 61.3133 29.5097 62.4142 32.6311C62.8469 33.8439 62.9479 34.7371 61.9335 35.9217C61.0777 36.9418 61.1066 38.6812 60.7508 40.1008C60.621 40.7214 60.4768 41.3325 60.2989 42.0705Z" fill="white" stroke="black" stroke-width="0.5" stroke-miterlimit="10"/>
</svg>
