<svg width="50" height="54" viewBox="0 0 50 54" fill="none" xmlns="http://www.w3.org/2000/svg">
<path d="M21.7411 52.9756C21.3421 51.0952 19.7797 49.5063 21.2988 47.6729C21.7773 47.1587 22.3145 46.6997 22.8998 46.305C23.1618 46.1422 23.3725 45.9116 23.5084 45.6388C23.6444 45.3659 23.7003 45.0615 23.6699 44.7595C23.6395 44.4574 23.524 44.1696 23.3363 43.9279C23.1485 43.6861 22.8959 43.5001 22.6065 43.3904C21.7315 42.9955 20.7989 42.7182 19.9479 42.2763C19.4027 41.9799 18.7924 41.8166 18.1689 41.8002C17.5453 41.7838 16.9269 41.9149 16.3663 42.1823C15.5089 42.4527 14.5807 42.4127 13.751 42.0695C12.5827 41.5994 12.7895 40.5699 13.126 39.5122C13.525 38.2476 13.0875 37.3122 11.6837 36.8374C11.3671 36.7234 11.0766 36.5492 10.829 36.3249C10.5815 36.1006 10.3818 35.8306 10.2415 35.5305C9.6838 34.0074 8.61171 33.4151 7.0781 33.4997C5.89544 33.5656 4.86183 33.1142 4.71761 32.0612C4.57338 31.0082 4.65511 29.5087 5.31855 28.8646C6.66466 27.539 6.35216 26.2603 5.24161 25.5975C2.74169 24.1073 3.3811 21.9214 3.36187 19.8154C3.43285 18.9673 3.3892 18.1138 3.23206 17.2769C2.49651 14.7243 1.61672 12.2188 0.828286 9.68497C0.111961 7.40504 0.602335 6.57768 2.54458 5.26613C3.16957 4.84305 3.19359 3.57381 3.583 2.44559C4.5116 2.48418 5.43499 2.60215 6.34256 2.79816C10.3328 3.93107 14.0827 2.46439 17.9095 1.85798C19.9864 1.53832 22.0344 1.01181 24.1161 0.69215C24.8468 0.579328 25.6352 0.809678 26.3996 0.889594L29.3707 1.19515L29.6111 0.678048C29.9813 1.33147 30.3755 1.97551 30.7168 2.64303C31.4187 4.0157 31.8947 5.73622 34.3754 4.16612L34.5677 4.73493C33.8994 6.73751 33.2648 8.75419 32.5485 10.7427C32.1831 11.744 32.1206 12.5525 33.2071 13.1636C34.8802 14.1038 36.5051 15.1286 38.2022 16.0171C39.1925 16.5342 39.332 17.2628 39.5339 18.2641C40.2694 21.9308 37.6109 23.7971 35.5965 26.0676C35.0436 26.6881 34.409 27.4779 34.3706 28.2535C34.2119 31.5018 35.7792 32.5408 39.3368 31.6758C40.7371 31.3457 42.1174 30.9392 43.4713 30.4582C44.7501 29.9882 45.6587 30.1997 45.8414 31.4313C45.726 32.6959 45.1779 34.1344 45.6154 35.1921C46.0193 36.1322 47.4807 36.6775 48.6634 37.5425L45.2693 39.2818C46.2308 40.3066 46.9663 41.3408 47.9519 42.0319C48.3848 42.2901 48.7342 42.6629 48.9597 43.1071C49.1851 43.5513 49.2774 44.0488 49.2259 44.5421C49.2165 45.2504 49.2696 45.9582 49.3845 46.6576C49.8124 49.8213 47.9423 52.0119 44.6491 51.8285C39.5916 51.57 34.5532 51.0858 29.4909 50.7943C25.1785 50.5405 25.1737 50.5969 21.7411 52.9756Z" fill="white" stroke="black" stroke-width="0.5" stroke-miterlimit="10"/>
</svg>
