<svg width="41" height="23" viewBox="0 0 41 23" fill="none" xmlns="http://www.w3.org/2000/svg">
<path d="M30.5978 15.6583L31.1267 15.9122C30.8911 13.3408 32.0882 11.8412 34.4343 10.8775C36.5159 10.0219 38.4389 8.7856 40.4293 7.71379L40.4629 7.16378C39.5591 6.90053 38.6649 6.46336 37.7419 6.40694C34.3766 6.20011 30.9776 6.25651 27.646 5.91334C26.2037 5.76761 24.0932 5.25992 23.5788 4.27273C22.6173 2.43938 21.0452 2.14793 19.4251 1.26416C19.3914 2.91418 18.6126 3.58171 17.0838 3.67572C16.603 3.70393 15.9829 4.35735 15.7713 4.86505C14.7377 7.35183 12.9541 8.46593 10.2042 8.21678C9.3045 8.1135 8.3978 8.08049 7.49273 8.11806C4.21879 8.34841 1.30544 9.14756 0.425659 13.007C0.978231 13.1381 1.54449 13.2059 2.11308 13.2091C6.75718 12.7391 11.1176 13.9143 15.2137 15.7852C17.1367 16.6596 19.1222 18.1639 20.0981 19.9032C20.776 21.1207 21.2087 22.0233 22.7183 22.4135C24.5644 19.8609 21.1895 18.6246 21.1847 16.5233C22.026 15.1553 23.0259 15.1929 24.4105 16.0955C25.6941 16.9323 26.8816 18.2861 28.5162 17.4446L30.5978 15.6583Z" fill="white" stroke="black" stroke-width="0.5" stroke-miterlimit="10"/>
</svg>
