<svg width="49" height="60" viewBox="0 0 49 60" fill="none" xmlns="http://www.w3.org/2000/svg">
<path d="M28.4285 3.44364C28.7749 2.9569 29.0959 2.45324 29.39 1.93464C29.8708 0.900439 30.5342 0.829938 31.6977 1.03678C33.402 1.27656 35.1326 1.27656 36.8369 1.03678C39.8513 0.693612 39.8416 0.608984 41.457 3.19918C41.7695 3.69747 42.0579 4.20517 42.5098 4.96202C38.7215 6.06203 39.3849 9.033 39.3032 11.7877C39.2359 13.9407 39.5243 15.8775 41.0916 17.5087C41.4934 17.8723 41.7775 18.3429 41.9089 18.8626C42.2021 21.481 43.9232 22.7831 46.1635 23.8456C48.0866 24.7575 48.6346 26.605 47.8702 28.584C47.5785 29.2311 47.328 29.8952 47.1202 30.5725C46.601 32.6174 45.6203 34.0794 43.1973 34.1828C42.9363 34.2486 42.696 34.3766 42.498 34.5554C42.3 34.7343 42.1504 34.9584 42.0627 35.2076C41.3725 39.0007 39.7065 42.5597 37.2215 45.5496C34.8177 48.4783 34.1158 51.6608 35.135 55.2852C35.4283 56.3335 35.0533 57.5604 34.9812 58.7309C32.5774 58.4253 30.9236 55.6894 28.7314 58.2044L26.4286 56.0937C25.95 56.7262 25.507 57.3837 25.1017 58.0634C24.2652 59.657 22.621 59.5395 21.2028 59.8638C20.996 59.9108 20.5393 59.5536 20.4432 59.295C20.2243 58.6821 19.851 58.1329 19.3578 57.6983C18.8646 57.2637 18.2673 56.9576 17.6211 56.8083C17.4645 56.7375 17.3241 56.6365 17.2084 56.5112C17.0927 56.386 17.0042 56.2392 16.9481 56.0796C16.2894 54.298 13.7607 53.0052 11.8761 53.5834C10.5315 53.9174 9.22397 54.3804 7.97238 54.9655C5.74167 56.1689 3.85231 55.6518 1.8716 54.1475C2.16294 53.6741 2.38466 53.163 2.53023 52.6291C2.59753 52.1591 2.50621 51.3787 2.19372 51.186C1.20337 50.5749 1.09279 49.7757 1.16971 48.765C1.33798 46.471 1.20337 44.1252 1.65047 41.8876C1.90046 40.6325 2.89561 39.3914 3.86193 38.4371C5.19843 37.1115 5.43882 36.0303 4.17443 34.5401C3.5158 33.7597 3.21291 32.6926 2.54466 31.3247C4.50614 30.9627 6.10224 30.5067 7.72719 30.3845C10.2271 30.2294 11.655 29.2187 12.3713 26.8447C12.7341 25.7246 13.1627 24.6259 13.6549 23.5541C13.7847 23.2532 14.1357 22.8301 14.3712 22.8254C16.9 22.7596 17.1115 20.4374 18.2173 19.0318C18.5009 18.6698 18.2461 17.819 18.0827 17.2361C17.5058 15.1959 18.0826 14.4155 20.1643 14.1852C24.0104 13.7809 23.3133 14.4437 24.1209 9.95437C24.5488 7.60392 24.395 7.78727 26.7363 8.23856C27.6689 8.42189 29.0246 7.76847 29.8179 7.06804C30.6111 6.36761 30.4813 5.24878 29.4718 4.46843C29.0973 4.1539 28.7484 3.81126 28.4285 3.44364Z" fill="white" stroke="black" stroke-width="0.5" stroke-miterlimit="10"/>
</svg>
