<svg width="166" height="153" viewBox="0 0 166 153" fill="none" xmlns="http://www.w3.org/2000/svg">
<path d="M28.8884 132.989C26.9654 134.935 24.951 135.598 22.1578 135.052C15.4272 133.727 8.61976 132.791 1.84592 131.686C1.36516 131.611 0.922872 131.447 0.331543 131.292C0.687302 127.324 1.01902 123.403 1.39401 119.488C2.06707 112.436 2.76897 105.385 3.45164 98.3335C4.25931 89.9941 5.06057 81.6547 5.85542 73.3153C6.51886 66.3862 7.14865 59.4524 7.81209 52.5233C8.59412 44.2998 9.39538 36.078 10.2159 27.8576C10.6197 23.688 11.0908 19.523 11.3697 15.3439C11.4562 14.0464 11.8504 13.5246 13.1437 13.2426C26.9253 10.1744 40.7182 7.0734 54.5222 3.93947C60.0381 2.6859 65.5508 1.43232 71.0602 0.178751C72.5842 -0.169116 75.387 0.921494 76.0264 2.21424C76.1698 2.65774 76.1831 3.13167 76.0649 3.5822C75.3582 7.56387 74.1947 11.4092 71.7381 14.7139C69.0987 18.249 68.3728 21.9016 69.2237 26.3158C69.7478 29.0282 68.9545 32.1684 68.0843 34.909C66.868 38.7308 68.743 41.8287 69.8968 45.0817C70.0843 45.6129 72.1227 45.6317 73.3053 45.6411C73.7092 45.6411 74.3438 44.9501 74.488 44.4659C74.945 43.058 75.2479 41.6068 75.3918 40.1364C75.6082 36.968 76.5649 34.1569 78.8484 31.8487C80.2474 30.4384 80.2234 28.9906 79.4494 27.1901C78.2042 24.2756 78.0071 21.3469 80.7282 18.9165C81.5936 18.1456 81.8484 17.2618 80.8724 16.3404C78.9109 14.4601 78.8436 12.0344 79.233 9.73568C79.435 8.53225 80.7474 7.50745 81.6368 6.29932C87.8193 11.2588 93.7422 15.9268 99.5594 20.717C102.925 23.4905 105.973 26.6448 109.429 29.2914C112.448 31.5949 115.718 33.6445 119.814 33.8607C120.775 33.9124 121.799 34.5846 122.674 35.1487C124.688 36.4462 126.669 37.8 128.573 39.2432C129.163 39.6877 129.554 40.3379 129.664 41.0578C129.781 43.7263 130.824 46.2763 132.621 48.2878C140.02 57.0831 147.38 65.9255 154.923 74.6269C156.846 76.8457 159.226 78.7543 162.327 79.4406C163.089 79.6555 163.837 79.9146 164.567 80.2163L164.798 80.8791C162.298 83.2295 159.755 85.5283 157.312 87.9304C156.27 88.8835 155.392 89.9946 154.712 91.2211C153.298 94.0651 151.64 96.6459 149.217 98.8036C148.192 99.6735 147.405 100.779 146.926 102.021C146.448 103.263 146.293 104.601 146.476 105.916C146.846 109.573 147.294 113.174 148.697 116.597C149.226 117.889 148.856 118.717 147.669 119.379C146.202 120.197 144.784 121.128 143.342 121.937C142.472 122.407 142.298 122.929 142.808 123.789C143.77 125.415 144.582 127.136 145.601 128.73C149.592 134.977 153.644 141.192 157.659 147.425C157.971 147.895 158.187 148.459 158.553 149.183L149.063 152.511C148.217 147.632 145.039 144.651 141.323 142.292C139.832 141.351 137.698 141.239 135.828 141.069C135.126 141.004 134.342 141.859 133.424 142.386C132.568 141.074 131.674 139.617 130.669 138.239C130.323 137.769 129.659 137.121 129.227 137.172C127.626 137.356 126.852 136.364 125.895 135.452C122.107 131.832 118.117 128.4 114.525 124.602C113.251 123.253 112.694 121.114 112.232 119.234C111.958 118.124 111.487 117.823 110.545 117.579C107.9 116.93 107.588 116.427 107.66 113.696C107.603 113.194 107.356 112.731 106.968 112.399C104.753 110.393 102.51 108.417 100.237 106.471C99.8999 106.145 99.4718 105.924 99.0065 105.836C94.5114 105.479 90.0164 105.103 85.5117 104.896C84.2665 104.844 83.5887 104.534 83.3195 103.378C83.2906 103.265 83.2233 103.161 83.1993 103.044C82.3964 99.6263 80.7955 97.1254 76.6562 97.2241C76.0505 97.2241 75.3197 96.5002 74.8197 95.9549C72.5602 93.5198 70.3679 91.033 67.9882 88.3817L65.6661 92.9416C65.0656 92.8302 64.4731 92.681 63.8922 92.495C62.9148 92.1117 61.8669 91.9306 60.8144 91.963C59.7619 91.9953 58.7277 92.2405 57.777 92.6831C57.3395 92.8711 56.6712 93.2612 56.676 93.5527C56.676 94.1074 56.9404 94.9348 57.3635 95.1651C61.2095 97.2523 61.7528 101.624 64.7142 104.67C62.8585 105.028 62.1038 104.995 61.1567 103.368C59.95 101.295 57.6375 99.8566 55.9164 98.0421C54.8347 96.8951 53.8588 96.8762 52.431 97.4498C50.7099 98.1502 50.1089 99.2408 50.056 100.966C49.9935 102.875 50.4791 105.028 48.1811 106.25C47.883 106.414 47.8638 107.082 47.5465 108.003C44.7293 107.641 41.8111 107.397 38.9554 106.852C37.2054 106.518 35.744 106.734 34.3978 107.792C31.6191 109.968 28.8259 112.135 26.124 114.401C25.5199 114.926 25.1405 115.655 25.0616 116.441C24.8885 120.085 24.9029 123.734 25.1048 127.376C25.2923 129.75 26.3885 131.917 28.8884 132.989Z" fill="white" stroke="black" stroke-width="0.5" stroke-miterlimit="10"/>
</svg>
