<svg width="169" height="182" viewBox="0 0 169 182" fill="none" xmlns="http://www.w3.org/2000/svg">
<path d="M84 164C125.421 164 159 130.421 159 89C159 47.5786 125.421 14 84 14C42.5786 14 9 47.5786 9 89C9 130.421 42.5786 164 84 164Z" fill="#F4F4F4"/>
<g filter="url(#filter0_d_566_6024)">
<path d="M140.033 157.474H29.1884C25.7836 157.474 22.9463 154.731 22.9463 151.232V26.7679C22.9463 23.3631 25.689 20.6204 29.1884 20.6204H140.033C143.438 20.6204 146.275 23.3631 146.275 26.8625V151.232C146.275 154.637 143.533 157.474 140.033 157.474Z" fill="white"/>
</g>
<path d="M133.128 58.1679H35.3351C34.2002 58.1679 33.2544 57.2221 33.2544 56.0871V37.5499C33.2544 36.415 34.2002 35.4692 35.3351 35.4692H133.128C134.263 35.4692 135.209 36.415 135.209 37.5499V55.9926C135.304 57.2221 134.358 58.1679 133.128 58.1679Z" fill="#FAFAFA"/>
<path d="M43.4692 49.6559C45.0362 49.6559 46.3065 48.3855 46.3065 46.8185C46.3065 45.2515 45.0362 43.9812 43.4692 43.9812C41.9022 43.9812 40.6318 45.2515 40.6318 46.8185C40.6318 48.3855 41.9022 49.6559 43.4692 49.6559Z" fill="#A4B0BE"/>
<path d="M113.267 48.7102H55.8585C55.3856 48.7102 55.0073 48.3319 55.0073 47.859V45.6837C55.0073 45.2108 55.3856 44.8325 55.8585 44.8325H113.267C113.74 44.8325 114.118 45.2108 114.118 45.6837V47.859C114.118 48.3319 113.74 48.7102 113.267 48.7102Z" fill="#A4B0BE"/>
<path d="M133.128 87.2974H35.3351C34.2002 87.2974 33.2544 86.3516 33.2544 85.2167V66.7741C33.2544 65.6391 34.2002 64.6934 35.3351 64.6934H133.128C134.263 64.6934 135.209 65.6391 135.209 66.7741V85.2167C135.304 86.3516 134.358 87.2974 133.128 87.2974Z" fill="#FAFAFA"/>
<path d="M43.4692 78.7852C45.0362 78.7852 46.3065 77.5149 46.3065 75.9479C46.3065 74.3809 45.0362 73.1106 43.4692 73.1106C41.9022 73.1106 40.6318 74.3809 40.6318 75.9479C40.6318 77.5149 41.9022 78.7852 43.4692 78.7852Z" fill="#A4B0BE"/>
<path d="M113.267 77.9343H55.8585C55.3856 77.9343 55.0073 77.556 55.0073 77.0831V74.9078C55.0073 74.435 55.3856 74.0566 55.8585 74.0566H113.267C113.74 74.0566 114.118 74.435 114.118 74.9078V77.0831C114.118 77.556 113.74 77.9343 113.267 77.9343Z" fill="#A4B0BE"/>
<path d="M133.128 145.652H35.3351C34.2002 145.652 33.2544 144.706 33.2544 143.571V125.129C33.2544 123.994 34.2002 123.048 35.3351 123.048H133.128C134.263 123.048 135.209 123.994 135.209 125.129V143.571C135.304 144.706 134.358 145.652 133.128 145.652Z" fill="#FAFAFA"/>
<path d="M43.4692 137.14C45.0362 137.14 46.3065 135.869 46.3065 134.302C46.3065 132.735 45.0362 131.465 43.4692 131.465C41.9022 131.465 40.6318 132.735 40.6318 134.302C40.6318 135.869 41.9022 137.14 43.4692 137.14Z" fill="#A4B0BE"/>
<path d="M113.267 136.194H55.8585C55.3856 136.194 55.0073 135.816 55.0073 135.343V133.168C55.0073 132.695 55.3856 132.316 55.8585 132.316H113.267C113.74 132.316 114.118 132.695 114.118 133.168V135.343C114.118 135.816 113.74 136.194 113.267 136.194Z" fill="#A4B0BE"/>
<path d="M132.891 116.428H35.0978C33.9629 116.428 33.0171 115.482 33.0171 114.347V95.9042C33.0171 94.7693 33.9629 93.8235 35.0978 93.8235H132.891C134.026 93.8235 134.972 94.7693 134.972 95.9042V114.347C134.972 115.482 134.026 116.428 132.891 116.428Z" fill="#FAFAFA"/>
<path d="M43.2319 108.01C44.7989 108.01 46.0692 106.74 46.0692 105.173C46.0692 103.606 44.7989 102.335 43.2319 102.335C41.6648 102.335 40.3945 103.606 40.3945 105.173C40.3945 106.74 41.6648 108.01 43.2319 108.01Z" fill="#A4B0BE"/>
<path d="M113.03 107.064H55.6212C55.1483 107.064 54.77 106.686 54.77 106.213V104.038C54.77 103.565 55.1483 103.187 55.6212 103.187H113.03C113.503 103.187 113.881 103.565 113.881 104.038V106.213C113.881 106.686 113.503 107.064 113.03 107.064Z" fill="#A4B0BE"/>
<path d="M114.158 108.8H79.1692C78.881 108.8 78.6504 108.098 78.6504 107.22V103.181C78.6504 102.303 78.881 101.6 79.1692 101.6H114.158C114.446 101.6 114.676 102.303 114.676 103.181V107.22C114.676 108.098 114.446 108.8 114.158 108.8Z" fill="#A4B0BE"/>
<path d="M114.209 80H82.7193C82.46 80 82.2524 79.2976 82.2524 78.4196V74.3805C82.2524 73.5025 82.46 72.8 82.7193 72.8H114.209C114.468 72.8 114.676 73.5025 114.676 74.3805V78.4196C114.676 79.2976 114.468 80 114.209 80Z" fill="#A4B0BE"/>
<path d="M155.732 134.885L140.906 119.815C139.385 118.269 137.199 117.69 135.203 118.076L131.592 114.405C141.856 101.46 141.001 82.4286 129.216 70.4495C119.332 60.4025 104.6 58.1806 92.6253 63.8803C89.2989 65.426 86.1625 67.6479 83.3113 70.4495C79.7948 73.9273 77.3238 78.0813 75.8031 82.5252C75.0428 84.6505 74.4725 86.7758 74.1874 88.9978C72.7618 98.9481 75.8031 109.478 83.3113 117.11C83.5014 117.303 83.5964 117.4 83.7865 117.593C90.0592 123.776 98.1376 126.771 106.311 126.771C113.534 126.771 120.757 124.355 126.65 119.525L130.261 123.196C129.881 125.225 130.451 127.447 131.972 128.992L146.703 144.063C149.174 146.575 153.166 146.575 155.637 144.063C158.203 141.551 158.203 137.397 155.732 134.885ZM124.559 112.376C123.418 113.536 122.183 114.502 120.947 115.468C119.712 116.337 118.476 117.013 117.241 117.593C110.398 120.878 102.319 120.878 95.4765 117.593C92.8154 116.337 90.3443 114.598 88.1584 112.376C81.8857 106 79.5097 97.2092 81.0303 88.9978C81.4105 86.7758 82.0758 84.5539 83.1212 82.5252C84.3568 79.9168 86.0675 77.4051 88.1584 75.2798C89.584 73.8307 91.1046 72.5748 92.7203 71.6088C96.9021 68.9038 101.654 67.6479 106.406 67.6479C113.059 67.6479 119.617 70.1597 124.654 75.2798C134.633 85.52 134.633 102.136 124.559 112.376Z" fill="#FF8500"/>
<defs>
<filter id="filter0_d_566_6024" x="0.946289" y="0.620361" width="167.329" height="180.854" filterUnits="userSpaceOnUse" color-interpolation-filters="sRGB">
<feFlood flood-opacity="0" result="BackgroundImageFix"/>
<feColorMatrix in="SourceAlpha" type="matrix" values="0 0 0 0 0 0 0 0 0 0 0 0 0 0 0 0 0 0 127 0" result="hardAlpha"/>
<feOffset dy="2"/>
<feGaussianBlur stdDeviation="11"/>
<feColorMatrix type="matrix" values="0 0 0 0 0.882353 0 0 0 0 0.891503 0 0 0 0 0.901961 0 0 0 0.2 0"/>
<feBlend mode="normal" in2="BackgroundImageFix" result="effect1_dropShadow_566_6024"/>
<feBlend mode="normal" in="SourceGraphic" in2="effect1_dropShadow_566_6024" result="shape"/>
</filter>
</defs>
</svg>
