<svg width="28" height="28" viewBox="0 0 28 28" fill="none" xmlns="http://www.w3.org/2000/svg">
<g clip-path="url(#clip0_222_27540)">
<path d="M28 6.46133H0V8.61492H28V6.46133Z" fill="#F5F5F5"/>
<path d="M26.5383 2.15387H1.46251C0.931606 2.77665 0.523036 3.50689 0.274536 4.30773H27.7262C27.4777 3.50689 27.0692 2.77665 26.5383 2.15387Z" fill="#F5F5F5"/>
<path d="M28 10.7691H0V12.9227H28V10.7691Z" fill="#F5F5F5"/>
<path d="M28 15.0768H0V17.2304H28V15.0768Z" fill="#F5F5F5"/>
<path d="M28 19.3845H0V21.5381H28V19.3845Z" fill="#F5F5F5"/>
<path d="M27.7262 23.6923H0.274536C0.522981 24.4932 0.931606 25.2234 1.46251 25.8461H26.5382C27.0692 25.2234 27.4777 24.4932 27.7262 23.6923Z" fill="#F5F5F5"/>
<path d="M21.8747 0H6.12467C4.2572 0 2.58524 0.836008 1.46179 2.15387H26.5375C25.4141 0.836008 23.7421 0 21.8747 0Z" fill="#FF4B55"/>
<path d="M28 8.61547H0V10.7691H28V8.61547Z" fill="#FF4B55"/>
<path d="M28 6.125C28 5.49221 27.904 4.8819 27.7259 4.30773H0.274148C0.0959766 4.8819 0 5.49221 0 6.125V6.46155H28V6.125Z" fill="#FF4B55"/>
<path d="M28 12.9232H0V15.0768H28V12.9232Z" fill="#FF4B55"/>
<path d="M28 21.875V21.5385H0V21.875C0 22.5078 0.0959766 23.1181 0.274148 23.6923H27.7259C27.904 23.1181 28 22.5078 28 21.875Z" fill="#FF4B55"/>
<path d="M26.5375 25.8461H1.46179C2.58524 27.164 4.2572 28 6.12467 28H21.8747C23.7421 28 25.4141 27.164 26.5375 25.8461Z" fill="#FF4B55"/>
<path d="M28 17.2309H0V19.3845H28V17.2309Z" fill="#FF4B55"/>
<path d="M15.0769 0H6.125C2.74225 0 0 2.74225 0 6.125V15.0769H15.0769V0Z" fill="#41479B"/>
<path d="M1.62696 2.35501C1.61263 2.40034 1.6642 2.43786 1.70292 2.41018L2.00168 2.19669L2.30044 2.41018C2.3391 2.43786 2.39073 2.40034 2.3764 2.35501L2.26566 2.0049L2.56108 1.78675C2.5993 1.75847 2.57962 1.69783 2.53204 1.69744L2.16487 1.6946L2.1022 1.50669C1.9448 1.6439 1.79469 1.78915 1.65212 1.94157L1.73781 2.0049L1.62696 2.35501Z" fill="#F5F5F5"/>
<path d="M2.04836 4.25223L2.16451 4.60059L2.53168 4.60343C2.57921 4.60381 2.59895 4.66446 2.56072 4.69273L2.2653 4.91088L2.37604 5.26099C2.39037 5.30633 2.3388 5.34379 2.30008 5.31617L2.00133 5.10262L1.70257 5.31617C1.6639 5.34384 1.61228 5.30633 1.62661 5.26099L1.73735 4.91088L1.44193 4.69273C1.4037 4.66451 1.42339 4.60381 1.47091 4.60343L1.83808 4.60059L1.95424 4.25223C1.9695 4.20711 2.03332 4.20711 2.04836 4.25223Z" fill="#F5F5F5"/>
<path d="M2.04836 7.47513L2.16451 7.82348L2.53168 7.82633C2.57921 7.82671 2.59895 7.88736 2.56072 7.91563L2.2653 8.13378L2.37604 8.48389C2.39037 8.52923 2.3388 8.56669 2.30008 8.53907L2.00133 8.32557L1.70257 8.53907C1.6639 8.56669 1.61228 8.52923 1.62661 8.48389L1.73735 8.13378L1.44193 7.91563C1.4037 7.88741 1.42339 7.82671 1.47091 7.82633L1.83808 7.82348L1.95424 7.47513C1.9695 7.43001 2.03332 7.43001 2.04836 7.47513Z" fill="#F5F5F5"/>
<path d="M2.04836 10.4362L2.16451 10.7846L2.53168 10.7874C2.57921 10.7878 2.59895 10.8485 2.56072 10.8767L2.2653 11.0949L2.37604 11.445C2.39037 11.4903 2.3388 11.5278 2.30008 11.5002L2.00133 11.2866L1.70257 11.5002C1.6639 11.5278 1.61228 11.4903 1.62661 11.445L1.73735 11.0949L1.44193 10.8767C1.4037 10.8485 1.42339 10.7878 1.47091 10.7874L1.83808 10.7846L1.95424 10.4362C1.9695 10.3911 2.03332 10.3911 2.04836 10.4362Z" fill="#F5F5F5"/>
<path d="M2.04836 13.1308L2.16451 13.4792L2.53168 13.482C2.57921 13.4824 2.59895 13.543 2.56072 13.5713L2.2653 13.7895L2.37604 14.1396C2.39037 14.1849 2.3388 14.2224 2.30008 14.1947L2.00133 13.9812L1.70257 14.1947C1.6639 14.2224 1.61228 14.1849 1.62661 14.1396L1.73735 13.7895L1.44193 13.5713C1.4037 13.5431 1.42339 13.4824 1.47091 13.482L1.83808 13.4792L1.95424 13.1308C1.9695 13.0857 2.03332 13.0857 2.04836 13.1308Z" fill="#F5F5F5"/>
<path d="M3.46323 2.7224L3.57939 3.07076L3.94656 3.0736C3.99408 3.07399 4.01383 3.13463 3.9756 3.16285L3.68018 3.381L3.79092 3.73111C3.80525 3.77645 3.75368 3.81396 3.71496 3.78629L3.41631 3.57274L3.11755 3.78629C3.07889 3.81396 3.02726 3.77645 3.04159 3.73111L3.15233 3.381L2.85697 3.16285C2.81874 3.13463 2.83843 3.07393 2.88595 3.0736L3.25312 3.07076L3.36928 2.7224C3.38437 2.67728 3.44819 2.67728 3.46323 2.7224Z" fill="#F5F5F5"/>
<path d="M3.46224 5.94529L3.5784 6.29365L3.94557 6.2965C3.99309 6.29688 4.01284 6.35753 3.97461 6.3858L3.67919 6.60395L3.78993 6.95406C3.80426 6.9994 3.75269 7.03691 3.71397 7.00924L3.41521 6.79569L3.11645 7.00924C3.07779 7.03691 3.02616 6.9994 3.04049 6.95406L3.15123 6.60395L2.85587 6.3858C2.81764 6.35758 2.83733 6.29688 2.88485 6.2965L3.25202 6.29365L3.36818 5.94529C3.38338 5.90018 3.4472 5.90018 3.46224 5.94529Z" fill="#F5F5F5"/>
<path d="M3.46224 9.00731L3.5784 9.35567L3.94557 9.35851C3.99309 9.35889 4.01284 9.41954 3.97461 9.44782L3.67919 9.66596L3.78993 10.0161C3.80426 10.0614 3.75269 10.0989 3.71397 10.0713L3.41521 9.8577L3.11645 10.0713C3.07779 10.0989 3.02616 10.0614 3.04049 10.0161L3.15123 9.66596L2.85587 9.44782C2.81764 9.4196 2.83733 9.35889 2.88485 9.35851L3.25202 9.35567L3.36818 9.00731C3.38338 8.96225 3.4472 8.96225 3.46224 9.00731Z" fill="#F5F5F5"/>
<path d="M3.46224 11.7571L3.5784 12.1055L3.94557 12.1083C3.99309 12.1087 4.01284 12.1693 3.97461 12.1976L3.67919 12.4158L3.78993 12.7659C3.80426 12.8112 3.75269 12.8487 3.71397 12.821L3.41521 12.6075L3.11645 12.821C3.07779 12.8487 3.02616 12.8112 3.04049 12.7659L3.15123 12.4158L2.85587 12.1976C2.81764 12.1694 2.83733 12.1087 2.88485 12.1083L3.25202 12.1055L3.36818 11.7571C3.38338 11.712 3.4472 11.712 3.46224 11.7571Z" fill="#F5F5F5"/>
<path d="M4.87716 1.3463L4.99332 1.69466L5.36049 1.6975C5.40801 1.69788 5.42775 1.75853 5.38953 1.78675L5.0941 2.0049L5.20485 2.35501C5.21917 2.40034 5.1676 2.4378 5.12889 2.41019L4.83013 2.19663L4.53137 2.41019C4.49271 2.43786 4.44108 2.40034 4.45541 2.35501L4.56615 2.0049L4.27078 1.78675C4.23256 1.75853 4.25225 1.69783 4.29977 1.6975L4.66694 1.69466L4.7831 1.3463C4.7983 1.30123 4.86212 1.30123 4.87716 1.3463Z" fill="#F5F5F5"/>
<path d="M4.87716 4.25223L4.99332 4.60059L5.36049 4.60343C5.40801 4.60381 5.42775 4.66446 5.38953 4.69273L5.0941 4.91088L5.20485 5.26099C5.21917 5.30633 5.1676 5.34379 5.12889 5.31617L4.83013 5.10262L4.53137 5.31617C4.49271 5.34384 4.44108 5.30633 4.45541 5.26099L4.56615 4.91088L4.27078 4.69273C4.23256 4.66451 4.25225 4.60381 4.29977 4.60343L4.66694 4.60059L4.7831 4.25223C4.7983 4.20711 4.86212 4.20711 4.87716 4.25223Z" fill="#F5F5F5"/>
<path d="M4.87716 7.47513L4.99332 7.82348L5.36049 7.82633C5.40801 7.82671 5.42775 7.88736 5.38953 7.91563L5.0941 8.13378L5.20485 8.48389C5.21917 8.52923 5.1676 8.56669 5.12889 8.53907L4.83013 8.32557L4.53137 8.53907C4.49271 8.56669 4.44108 8.52923 4.45541 8.48389L4.56615 8.13378L4.27078 7.91563C4.23256 7.88741 4.25225 7.82671 4.29977 7.82633L4.66694 7.82348L4.7831 7.47513C4.7983 7.43001 4.86212 7.43001 4.87716 7.47513Z" fill="#F5F5F5"/>
<path d="M4.87716 10.4362L4.99332 10.7846L5.36049 10.7874C5.40801 10.7878 5.42775 10.8485 5.38953 10.8767L5.0941 11.0949L5.20485 11.445C5.21917 11.4903 5.1676 11.5278 5.12889 11.5002L4.83013 11.2866L4.53137 11.5002C4.49271 11.5278 4.44108 11.4903 4.45541 11.445L4.56615 11.0949L4.27078 10.8767C4.23256 10.8485 4.25225 10.7878 4.29977 10.7874L4.66694 10.7846L4.7831 10.4362C4.7983 10.3911 4.86212 10.3911 4.87716 10.4362Z" fill="#F5F5F5"/>
<path d="M4.87716 13.1308L4.99332 13.4792L5.36049 13.482C5.40801 13.4824 5.42775 13.543 5.38953 13.5713L5.0941 13.7895L5.20485 14.1396C5.21917 14.1849 5.1676 14.2224 5.12889 14.1947L4.83013 13.9812L4.53137 14.1947C4.49271 14.2224 4.44108 14.1849 4.45541 14.1396L4.56615 13.7895L4.27078 13.5713C4.23256 13.5431 4.25225 13.4824 4.29977 13.482L4.66694 13.4792L4.7831 13.1308C4.7983 13.0857 4.86212 13.0857 4.87716 13.1308Z" fill="#F5F5F5"/>
<path d="M6.29115 2.7224L6.40731 3.07076L6.77448 3.0736C6.822 3.07399 6.84175 3.13463 6.80346 3.16285L6.5081 3.381L6.61884 3.73111C6.63317 3.77645 6.5816 3.81396 6.54288 3.78629L6.24412 3.57274L5.94536 3.78629C5.9067 3.81396 5.85507 3.77645 5.8694 3.73111L5.98014 3.381L5.68472 3.16285C5.6465 3.13463 5.66618 3.07393 5.71376 3.0736L6.08093 3.07076L6.19709 2.7224C6.21235 2.67728 6.27611 2.67728 6.29115 2.7224Z" fill="#F5F5F5"/>
<path d="M6.29115 5.94529L6.40731 6.29365L6.77448 6.2965C6.822 6.29688 6.84175 6.35753 6.80346 6.3858L6.5081 6.60395L6.61884 6.95406C6.63317 6.9994 6.5816 7.03691 6.54288 7.00924L6.24412 6.79569L5.94536 7.00924C5.9067 7.03691 5.85507 6.9994 5.8694 6.95406L5.98014 6.60395L5.68472 6.3858C5.6465 6.35758 5.66618 6.29688 5.71376 6.2965L6.08093 6.29365L6.19709 5.94529C6.21235 5.90018 6.27611 5.90018 6.29115 5.94529Z" fill="#F5F5F5"/>
<path d="M6.29115 9.00731L6.40731 9.35567L6.77448 9.35851C6.822 9.35889 6.84175 9.41954 6.80346 9.44782L6.5081 9.66596L6.61884 10.0161C6.63317 10.0614 6.5816 10.0989 6.54288 10.0713L6.24412 9.8577L5.94536 10.0713C5.9067 10.0989 5.85507 10.0614 5.8694 10.0161L5.98014 9.66596L5.68472 9.44782C5.6465 9.4196 5.66618 9.35889 5.71376 9.35851L6.08093 9.35567L6.19709 9.00731C6.21235 8.96225 6.27611 8.96225 6.29115 9.00731Z" fill="#F5F5F5"/>
<path d="M6.29115 11.7571L6.40731 12.1055L6.77448 12.1083C6.822 12.1087 6.84175 12.1693 6.80346 12.1976L6.5081 12.4158L6.61884 12.7659C6.63317 12.8112 6.5816 12.8487 6.54288 12.821L6.24412 12.6075L5.94536 12.821C5.9067 12.8487 5.85507 12.8112 5.8694 12.7659L5.98014 12.4158L5.68472 12.1976C5.6465 12.1694 5.66618 12.1087 5.71376 12.1083L6.08093 12.1055L6.19709 11.7571C6.21235 11.712 6.27611 11.712 6.29115 11.7571Z" fill="#F5F5F5"/>
<path d="M7.70614 1.3463L7.82229 1.69466L8.18946 1.6975C8.23699 1.69788 8.25673 1.75853 8.21845 1.78675L7.92308 2.0049L8.03382 2.35501C8.04815 2.40034 7.99658 2.4378 7.95786 2.41019L7.6591 2.19663L7.36035 2.41019C7.32168 2.43786 7.27006 2.40034 7.28439 2.35501L7.39513 2.0049L7.09976 1.78675C7.06153 1.75853 7.08122 1.69783 7.1288 1.6975L7.49597 1.69466L7.61213 1.3463C7.62733 1.30123 7.6911 1.30123 7.70614 1.3463Z" fill="#F5F5F5"/>
<path d="M7.70584 4.25223L7.82199 4.60059L8.18916 4.60343C8.23669 4.60381 8.25643 4.66446 8.21815 4.69273L7.92278 4.91088L8.03358 5.26094C8.04791 5.30627 7.99634 5.34373 7.95762 5.31612L7.65886 5.10256L7.3601 5.31612C7.32144 5.34379 7.26981 5.30627 7.28414 5.26094L7.39488 4.91083L7.09952 4.69268C7.06129 4.66446 7.08098 4.60376 7.12856 4.60338L7.49573 4.60053L7.61188 4.25217C7.62703 4.20711 7.6908 4.20711 7.70584 4.25223Z" fill="#F5F5F5"/>
<path d="M7.70614 7.47513L7.82229 7.82349L8.18946 7.82633C8.23699 7.82672 8.25673 7.88736 8.21845 7.91564L7.92308 8.13379L8.03382 8.4839C8.04815 8.52923 7.99658 8.56669 7.95786 8.53908L7.6591 8.32557L7.36035 8.53908C7.32168 8.56669 7.27006 8.52923 7.28439 8.4839L7.39513 8.13379L7.09976 7.91564C7.06153 7.88742 7.08122 7.82672 7.1288 7.82633L7.49597 7.82349L7.61213 7.47513C7.62733 7.43001 7.6911 7.43001 7.70614 7.47513Z" fill="#F5F5F5"/>
<path d="M7.70614 10.4362L7.82229 10.7846L8.18946 10.7874C8.23699 10.7878 8.25673 10.8485 8.21845 10.8767L7.92308 11.0949L8.03382 11.445C8.04815 11.4903 7.99658 11.5278 7.95786 11.5002L7.6591 11.2866L7.36035 11.5002C7.32168 11.5278 7.27006 11.4903 7.28439 11.445L7.39513 11.0949L7.09976 10.8767C7.06153 10.8485 7.08122 10.7878 7.1288 10.7874L7.49597 10.7846L7.61213 10.4362C7.62733 10.3911 7.6911 10.3911 7.70614 10.4362Z" fill="#F5F5F5"/>
<path d="M7.70614 13.1308L7.82229 13.4792L8.18946 13.482C8.23699 13.4824 8.25673 13.543 8.21845 13.5713L7.92308 13.7895L8.03382 14.1396C8.04815 14.1849 7.99658 14.2224 7.95786 14.1947L7.6591 13.9812L7.36035 14.1947C7.32168 14.2224 7.27006 14.1849 7.28439 14.1396L7.39513 13.7895L7.09976 13.5713C7.06153 13.5431 7.08122 13.4824 7.1288 13.482L7.49597 13.4792L7.61213 13.1308C7.62733 13.0857 7.6911 13.0857 7.70614 13.1308Z" fill="#F5F5F5"/>
<path d="M9.12026 2.7224L9.23641 3.07076L9.60358 3.0736C9.65111 3.07398 9.67085 3.13463 9.63257 3.16285L9.33715 3.381L9.44789 3.73111C9.46222 3.77645 9.41059 3.81396 9.37193 3.78629L9.07317 3.57273L8.77441 3.78629C8.73575 3.81396 8.68412 3.77645 8.69845 3.73111L8.80919 3.381L8.51383 3.16285C8.4756 3.13463 8.49529 3.07393 8.54281 3.0736L8.90998 3.07076L9.02614 2.7224C9.04145 2.67728 9.10522 2.67728 9.12026 2.7224Z" fill="#F5F5F5"/>
<path d="M9.12026 5.9453L9.23641 6.29366L9.60358 6.2965C9.65111 6.29688 9.67085 6.35753 9.63257 6.3858L9.33715 6.60395L9.44789 6.95406C9.46222 6.9994 9.41059 7.03691 9.37193 7.00924L9.07317 6.79569L8.77441 7.00924C8.73575 7.03691 8.68412 6.9994 8.69845 6.95406L8.80919 6.60395L8.51383 6.3858C8.4756 6.35759 8.49529 6.29688 8.54281 6.2965L8.90998 6.29366L9.02614 5.9453C9.04145 5.90018 9.10522 5.90018 9.12026 5.9453Z" fill="#F5F5F5"/>
<path d="M9.12026 9.0073L9.23641 9.35566L9.60358 9.35851C9.65111 9.35889 9.67085 9.41954 9.63257 9.44781L9.33715 9.66596L9.44789 10.0161C9.46222 10.0614 9.41059 10.0989 9.37193 10.0712L9.07317 9.85769L8.77441 10.0712C8.73575 10.0989 8.68412 10.0614 8.69845 10.0161L8.80919 9.66596L8.51383 9.44781C8.4756 9.41959 8.49529 9.35889 8.54281 9.35851L8.90998 9.35566L9.02614 9.0073C9.04145 8.96224 9.10522 8.96224 9.12026 9.0073Z" fill="#F5F5F5"/>
<path d="M9.12026 11.7571L9.23641 12.1055L9.60358 12.1083C9.65111 12.1087 9.67085 12.1693 9.63257 12.1976L9.33715 12.4158L9.44789 12.7659C9.46222 12.8112 9.41059 12.8487 9.37193 12.821L9.07317 12.6075L8.77441 12.821C8.73575 12.8487 8.68412 12.8112 8.69845 12.7659L8.80919 12.4158L8.51383 12.1976C8.4756 12.1694 8.49529 12.1087 8.54281 12.1083L8.90998 12.1055L9.02614 11.7571C9.04145 11.712 9.10522 11.712 9.12026 11.7571Z" fill="#F5F5F5"/>
<path d="M10.5341 1.3463L10.6503 1.69466L11.0175 1.6975C11.065 1.69788 11.0847 1.75853 11.0464 1.78675L10.751 2.0049L10.8618 2.35501C10.8761 2.40034 10.8245 2.4378 10.7858 2.41019L10.487 2.19663L10.1883 2.41019C10.1496 2.43786 10.098 2.40034 10.1123 2.35501L10.2231 2.0049L9.92764 1.78675C9.88942 1.75853 9.9091 1.69783 9.95668 1.6975L10.3239 1.69466L10.44 1.3463C10.4553 1.30123 10.5191 1.30123 10.5341 1.3463Z" fill="#F5F5F5"/>
<path d="M10.5341 4.25223L10.6503 4.60059L11.0175 4.60343C11.065 4.60381 11.0847 4.66446 11.0464 4.69273L10.751 4.91088L10.8618 5.26099C10.8761 5.30633 10.8245 5.34379 10.7858 5.31617L10.487 5.10262L10.1883 5.31617C10.1496 5.34384 10.098 5.30633 10.1123 5.26099L10.2231 4.91088L9.92764 4.69273C9.88942 4.66451 9.9091 4.60381 9.95668 4.60343L10.3239 4.60059L10.44 4.25223C10.4553 4.20711 10.5191 4.20711 10.5341 4.25223Z" fill="#F5F5F5"/>
<path d="M10.5341 7.47513L10.6503 7.82349L11.0175 7.82633C11.065 7.82672 11.0847 7.88736 11.0464 7.91564L10.751 8.13379L10.8618 8.4839C10.8761 8.52923 10.8245 8.56669 10.7858 8.53908L10.487 8.32557L10.1883 8.53908C10.1496 8.56669 10.098 8.52923 10.1123 8.4839L10.2231 8.13379L9.92764 7.91564C9.88942 7.88742 9.9091 7.82672 9.95668 7.82633L10.3239 7.82349L10.44 7.47513C10.4553 7.43001 10.5191 7.43001 10.5341 7.47513Z" fill="#F5F5F5"/>
<path d="M10.5341 10.4362L10.6503 10.7846L11.0175 10.7874C11.065 10.7878 11.0847 10.8485 11.0464 10.8767L10.751 11.0949L10.8618 11.445C10.8761 11.4903 10.8245 11.5278 10.7858 11.5002L10.487 11.2866L10.1883 11.5002C10.1496 11.5278 10.098 11.4903 10.1123 11.445L10.2231 11.0949L9.92764 10.8767C9.88942 10.8485 9.9091 10.7878 9.95668 10.7874L10.3239 10.7846L10.44 10.4362C10.4553 10.3911 10.5191 10.3911 10.5341 10.4362Z" fill="#F5F5F5"/>
<path d="M10.5341 13.1308L10.6503 13.4792L11.0175 13.482C11.065 13.4824 11.0847 13.543 11.0464 13.5713L10.751 13.7895L10.8618 14.1396C10.8761 14.1849 10.8245 14.2224 10.7858 14.1947L10.487 13.9812L10.1883 14.1947C10.1496 14.2224 10.098 14.1849 10.1123 14.1396L10.2231 13.7895L9.92764 13.5713C9.88942 13.5431 9.9091 13.4824 9.95668 13.482L10.3239 13.4792L10.44 13.1308C10.4553 13.0857 10.5191 13.0857 10.5341 13.1308Z" fill="#F5F5F5"/>
<path d="M11.949 2.7224L12.0651 3.07076L12.4324 3.0736C12.4799 3.07398 12.4996 3.13463 12.4614 3.16285L12.1659 3.381L12.2767 3.73111C12.291 3.77645 12.2394 3.81396 12.2007 3.78629L11.902 3.57273L11.6032 3.78629C11.5645 3.81396 11.5129 3.77645 11.5272 3.73111L11.638 3.381L11.3426 3.16285C11.3043 3.13463 11.324 3.07393 11.3715 3.0736L11.7388 3.07076L11.8549 2.7224C11.8702 2.67728 11.934 2.67728 11.949 2.7224Z" fill="#F5F5F5"/>
<path d="M11.949 5.9453L12.0651 6.29366L12.4324 6.2965C12.4799 6.29688 12.4996 6.35753 12.4614 6.3858L12.1659 6.60395L12.2767 6.95406C12.291 6.9994 12.2394 7.03691 12.2007 7.00924L11.902 6.79569L11.6032 7.00924C11.5645 7.03691 11.5129 6.9994 11.5272 6.95406L11.638 6.60395L11.3426 6.3858C11.3043 6.35759 11.324 6.29688 11.3715 6.2965L11.7388 6.29366L11.8549 5.9453C11.8702 5.90018 11.934 5.90018 11.949 5.9453Z" fill="#F5F5F5"/>
<path d="M11.949 9.0073L12.0651 9.35566L12.4324 9.35851C12.4799 9.35889 12.4996 9.41954 12.4614 9.44781L12.1659 9.66596L12.2767 10.0161C12.291 10.0614 12.2394 10.0989 12.2007 10.0712L11.902 9.85769L11.6032 10.0712C11.5645 10.0989 11.5129 10.0614 11.5272 10.0161L11.638 9.66596L11.3426 9.44781C11.3043 9.41959 11.324 9.35889 11.3715 9.35851L11.7388 9.35566L11.8549 9.0073C11.8702 8.96224 11.934 8.96224 11.949 9.0073Z" fill="#F5F5F5"/>
<path d="M11.949 11.7571L12.0651 12.1055L12.4324 12.1083C12.4799 12.1087 12.4996 12.1693 12.4614 12.1976L12.1659 12.4158L12.2767 12.7659C12.291 12.8112 12.2394 12.8487 12.2007 12.821L11.902 12.6075L11.6032 12.821C11.5645 12.8487 11.5129 12.8112 11.5272 12.7659L11.638 12.4158L11.3426 12.1976C11.3043 12.1694 11.324 12.1087 11.3715 12.1083L11.7388 12.1055L11.8549 11.7571C11.8702 11.712 11.934 11.712 11.949 11.7571Z" fill="#F5F5F5"/>
<path d="M13.3629 1.3463L13.4791 1.69466L13.8463 1.6975C13.8938 1.69788 13.9135 1.75853 13.8753 1.78675L13.5799 2.0049L13.6906 2.35501C13.7049 2.40034 13.6533 2.4378 13.6147 2.41019L13.3159 2.19663L13.0171 2.41019C12.9785 2.43786 12.9269 2.40034 12.9412 2.35501L13.0519 2.0049L12.7565 1.78675C12.7183 1.75853 12.738 1.69783 12.7855 1.6975L13.1527 1.69466L13.2688 1.3463C13.2841 1.30123 13.3479 1.30123 13.3629 1.3463Z" fill="#F5F5F5"/>
<path d="M13.3629 4.25223L13.4791 4.60059L13.8463 4.60343C13.8938 4.60381 13.9135 4.66446 13.8753 4.69273L13.5799 4.91088L13.6906 5.26099C13.7049 5.30633 13.6533 5.34379 13.6147 5.31617L13.3159 5.10262L13.0171 5.31617C12.9785 5.34384 12.9269 5.30633 12.9412 5.26099L13.0519 4.91088L12.7565 4.69273C12.7183 4.66451 12.738 4.60381 12.7855 4.60343L13.1527 4.60059L13.2688 4.25223C13.2841 4.20711 13.3479 4.20711 13.3629 4.25223Z" fill="#F5F5F5"/>
<path d="M13.3629 7.47513L13.4791 7.82349L13.8463 7.82633C13.8938 7.82672 13.9135 7.88736 13.8753 7.91564L13.5799 8.13379L13.6906 8.4839C13.7049 8.52923 13.6533 8.56669 13.6147 8.53908L13.3159 8.32557L13.0171 8.53908C12.9785 8.56669 12.9269 8.52923 12.9412 8.4839L13.0519 8.13379L12.7565 7.91564C12.7183 7.88742 12.738 7.82672 12.7855 7.82633L13.1527 7.82349L13.2688 7.47513C13.2841 7.43001 13.3479 7.43001 13.3629 7.47513Z" fill="#F5F5F5"/>
<path d="M13.3629 10.4362L13.4791 10.7846L13.8463 10.7874C13.8938 10.7878 13.9135 10.8485 13.8753 10.8767L13.5799 11.0949L13.6906 11.445C13.7049 11.4903 13.6533 11.5278 13.6147 11.5002L13.3159 11.2866L13.0171 11.5002C12.9785 11.5278 12.9269 11.4903 12.9412 11.445L13.0519 11.0949L12.7565 10.8767C12.7183 10.8485 12.738 10.7878 12.7855 10.7874L13.1527 10.7846L13.2688 10.4362C13.2841 10.3911 13.3479 10.3911 13.3629 10.4362Z" fill="#F5F5F5"/>
<path d="M13.3629 13.1308L13.4791 13.4792L13.8463 13.482C13.8938 13.4824 13.9135 13.543 13.8753 13.5713L13.5799 13.7895L13.6906 14.1396C13.7049 14.1849 13.6533 14.2224 13.6147 14.1947L13.3159 13.9812L13.0171 14.1947C12.9785 14.2224 12.9269 14.1849 12.9412 14.1396L13.0519 13.7895L12.7565 13.5713C12.7183 13.5431 12.738 13.4824 12.7855 13.482L13.1527 13.4792L13.2688 13.1308C13.2841 13.0857 13.3479 13.0857 13.3629 13.1308Z" fill="#F5F5F5"/>
</g>
<defs>
<clipPath id="clip0_222_27540">
<rect width="28" height="28" rx="14" fill="white"/>
</clipPath>
</defs>
</svg>
